# xmcd
#
# Track frame offsets: 
#        150
#        16230
#        47659
#        67691
#        95162
#        125020
#        136817
#        165775
#        190045
#        208413
#        231635
#        264830
#        297182
#
# Disc length: 4348 seconds
#
# Revision: 2
# Processed by: cddbd v1.5.2PL0 Copyright (c) Steve Scherf et al.
# Submitted via: ExactAudioCopyFreeDBPlugin 1.0
#
DISCID=b410fa0d
DTITLE=Perry Rhodan - Silber Edition 22 - Schrecken der Hohlwelt ( CD 
DTITLE=11)
DYEAR=2009
DGENRE=Hörspiel
TTITLE0=Kapitel 29 - 1
TTITLE1=Kapitel 30 - 1
TTITLE2=Kapitel 30 - 2
TTITLE3=Kapitel 30 - 3
TTITLE4=Kapitel 30 - 4
TTITLE5=Kapitel 30 - 5
TTITLE6=Kapitel 31 - 1
TTITLE7=Kapitel 31 - 2
TTITLE8=Kapitel 31 - 3
TTITLE9=Kapitel 31 - 4
TTITLE10=Kapitel 31 - 5
TTITLE11=Kapitel 31 - 6
TTITLE12=Kapitel 32 - 1
EXTD=
EXTT0=
EXTT1=
EXTT2=
EXTT3=
EXTT4=
EXTT5=
EXTT6=
EXTT7=
EXTT8=
EXTT9=
EXTT10=
EXTT11=
EXTT12=
PLAYORDER=
